# xmcd CD database file
#
# Track frame offsets:
#	372
#	23902
#	43007
#	82079
#	105378
#	127456
#	154387
#	175928
#	196239
#	211816
#	229546
#
# Disc length: 3391 seconds
#
# Revision: 0
# Processed by: cddbd v1.5.2PL0 Copyright (c) Steve Scherf et al.
# Submitted via: CDex 1.51
#
DISCID=950d3b0b
DTITLE=DOWNCHILD - DOWNCHILD  LIVE AT THE PALAIS ROYALE
DYEAR=2007
DGENRE=Blues
TTITLE0=IT'S BEEN SO LONG
TTITLE1=GOING DANCING
TTITLE2=WEDNESDAY NIGHT BLUES
TTITLE3=(I GOT EVERYTHING I NEED) ALMOST
TTITLE4=I'VE BEEN A FOOL
TTITLE5=IT'S A MATTER OF TIME
TTITLE6=WHEN I SAY JUMP
TTITLE7=MR. CONFUSED
TTITLE8=WHAT YOU GONNA DO
TTITLE9=DEW DROP INN
TTITLE10=SOARING
EXTD=YEAR: 2007
EXTT0=
EXTT1=
EXTT2=
EXTT3=
EXTT4=
EXTT5=
EXTT6=
EXTT7=
EXTT8=
EXTT9=
EXTT10=
PLAYORDER=
